<?xml version="1.0" encoding="utf-8"?>
<svg width="24px" height="24px" viewBox="0 0 24 24" version="1.1" xmlns:xlink="http://www.w3.org/1999/xlink" xmlns="http://www.w3.org/2000/svg">
  <defs>
    <path d="M-12 -312L-12 -312L-12 -288L-36 -288L-36 -312L-12 -312Z" id="path_1" />
    <clipPath id="clip_1">
      <use xlink:href="#path_1" clip-rule="evenodd" fill-rule="evenodd" />
    </clipPath>
  </defs>
  <g id="Github">
    <path d="M-12 -312L-12 -312L-12 -288L-36 -288L-36 -312L-12 -312Z" id="Github" fill="none" stroke="none" />
    <path d="M10.9 2.1C6.3 2.6 2.6 6.3 2.1 10.8C1.6 15.5 4.3 19.7 8.4 21.3C8.7 21.4 9 21.2 9 20.8L9 19.2C9 19.2 8.6 19.3 8.1 19.3C6.7 19.3 6.1 18.1 6 17.4C5.9 17 5.7 16.7 5.4 16.4C5.1 16.3 5 16.3 5 16.2C5 16 5.3 16 5.4 16C6 16 6.5 16.7 6.7 17C7.2 17.8 7.8 18 8.1 18C8.5 18 8.8 17.9 9 17.8C9.1 17.1 9.4 16.4 10 16C7.7 15.5 6 14.2 6 12C6 10.9 6.5 9.8 7.2 9C7.1 8.8 7 8.3 7 7.6C7 7.2 7 6.6 7.3 6C7.3 6 8.7 6 10.1 7.3C10.6 7.1 11.3 7 12 7C12.7 7 13.4 7.1 14 7.3C15.3 6 16.8 6 16.8 6C17 6.6 17 7.2 17 7.6C17 8.4 16.9 8.8 16.8 9C17.5 9.8 18 10.8 18 12C18 14.2 16.3 15.5 14 16C14.6 16.5 15 17.4 15 18.3L15 20.9C15 21.2 15.3 21.5 15.7 21.4C19.4 19.9 22 16.3 22 12.1C22 6.1 16.9 1.4 10.9 2.1L10.9 2.1Z" id="Shape" fill="#FFFFFF" stroke="none" clip-path="url(#clip_1)" />
    <path d="M10.9 2.1C6.3 2.6 2.6 6.3 2.1 10.8C1.6 15.5 4.3 19.7 8.4 21.3C8.7 21.4 9 21.2 9 20.8L9 19.2C9 19.2 8.6 19.3 8.1 19.3C6.7 19.3 6.1 18.1 6 17.4C5.9 17 5.7 16.7 5.4 16.4C5.1 16.3 5 16.3 5 16.2C5 16 5.3 16 5.4 16C6 16 6.5 16.7 6.7 17C7.2 17.8 7.8 18 8.1 18C8.5 18 8.8 17.9 9 17.8C9.1 17.1 9.4 16.4 10 16C7.7 15.5 6 14.2 6 12C6 10.9 6.5 9.8 7.2 9C7.1 8.8 7 8.3 7 7.6C7 7.2 7 6.6 7.3 6C7.3 6 8.7 6 10.1 7.3C10.6 7.1 11.3 7 12 7C12.7 7 13.4 7.1 14 7.3C15.3 6 16.8 6 16.8 6C17 6.6 17 7.2 17 7.6C17 8.4 16.9 8.8 16.8 9C17.5 9.8 18 10.8 18 12C18 14.2 16.3 15.5 14 16C14.6 16.5 15 17.4 15 18.3L15 20.9C15 21.2 15.3 21.5 15.7 21.4C19.4 19.9 22 16.3 22 12.1C22 6.1 16.9 1.4 10.9 2.1L10.9 2.1Z" id="Shape" fill="#FFFFFF" stroke="none" clip-path="url(#clip_1)" />
  </g>
</svg>