<?xml version="1.0" encoding="utf-8"?>
<svg width="24px" height="24px" viewBox="0 0 24 24" version="1.1" xmlns:xlink="http://www.w3.org/1999/xlink" xmlns="http://www.w3.org/2000/svg">
  <defs>
    <path d="M-12 -252L-12 -252L-12 -228L-36 -228L-36 -252L-12 -252Z" id="path_1" />
    <clipPath id="clip_1">
      <use xlink:href="#path_1" clip-rule="evenodd" fill-rule="evenodd" />
    </clipPath>
  </defs>
  <g id="Linkedin">
    <path d="M-12 -252L-12 -252L-12 -228L-36 -228L-36 -252L-12 -252Z" id="Linkedin" fill="none" stroke="none" />
    <path d="M5 3C3.895 3 3 3.895 3 5L3 19C3 20.105 3.895 21 5 21L19 21C20.105 21 21 20.105 21 19L21 5C21 3.895 20.105 3 19 3L5 3L5 3ZM5 5L19 5L19 19L5 19L5 5L5 5ZM7.7793 6.31641C6.9223 6.31641 6.4082 6.83158 6.4082 7.51758C6.4082 8.20358 6.92236 8.7168 7.69336 8.7168C8.55036 8.7168 9.06445 8.20358 9.06445 7.51758C9.06445 6.83158 8.5503 6.31641 7.7793 6.31641L7.7793 6.31641ZM6.47656 10L6.47656 17L9 17L9 10L6.47656 10L6.47656 10ZM11.082 10L11.082 17L13.6055 17L13.6055 13.1738C13.6055 12.0348 14.4181 11.8711 14.6621 11.8711C14.9061 11.8711 15.5586 12.1158 15.5586 13.1738L15.5586 17L18 17L18 13.1738C18 10.9768 17.0237 10 15.8027 10C14.5817 10 13.9305 10.4066 13.6055 10.9766L13.6055 10L11.082 10L11.082 10Z" id="Shape" fill="#FFFFFF" fill-rule="evenodd" stroke="none" clip-path="url(#clip_1)" />
    <path d="M5 3C3.895 3 3 3.895 3 5L3 19C3 20.105 3.895 21 5 21L19 21C20.105 21 21 20.105 21 19L21 5C21 3.895 20.105 3 19 3L5 3L5 3ZM5 5L19 5L19 19L5 19L5 5L5 5ZM7.7793 6.31641C6.9223 6.31641 6.4082 6.83158 6.4082 7.51758C6.4082 8.20358 6.92236 8.7168 7.69336 8.7168C8.55036 8.7168 9.06445 8.20358 9.06445 7.51758C9.06445 6.83158 8.5503 6.31641 7.7793 6.31641L7.7793 6.31641ZM6.47656 10L6.47656 17L9 17L9 10L6.47656 10L6.47656 10ZM11.082 10L11.082 17L13.6055 17L13.6055 13.1738C13.6055 12.0348 14.4181 11.8711 14.6621 11.8711C14.9061 11.8711 15.5586 12.1158 15.5586 13.1738L15.5586 17L18 17L18 13.1738C18 10.9768 17.0237 10 15.8027 10C14.5817 10 13.9305 10.4066 13.6055 10.9766L13.6055 10L11.082 10L11.082 10Z" id="Shape" fill="#FFFFFF" fill-rule="evenodd" stroke="none" clip-path="url(#clip_1)" />
  </g>
</svg>