<?xml version="1.0" encoding="UTF-8"?>
<!DOCTYPE svg PUBLIC "-//W3C//DTD SVG 1.1//EN" "http://www.w3.org/Graphics/SVG/1.1/DTD/svg11.dtd">
<svg xmlns="http://www.w3.org/2000/svg" version="1.1" width="400px" height="400px" style="shape-rendering:geometricPrecision; text-rendering:geometricPrecision; image-rendering:optimizeQuality; fill-rule:evenodd; clip-rule:evenodd" xmlns:xlink="http://www.w3.org/1999/xlink">
<g><path style="opacity:1" fill="#d5d5d6" d="M 271.5,67.5 C 270.883,67.6107 270.383,67.944 270,68.5C 269.551,76.2226 268.718,83.8893 267.5,91.5C 267.167,91.5 266.833,91.5 266.5,91.5C 256.538,93.8067 246.538,93.9734 236.5,92C 230.554,86.0541 224.554,80.0541 218.5,74C 212.903,72.9091 207.57,73.5758 202.5,76C 196.802,82.0325 190.802,87.6991 184.5,93C 170.11,97.2794 155.443,99.6127 140.5,100C 135.729,88.6325 131.396,77.1325 127.5,65.5C 133.824,58.3683 140.491,51.535 147.5,45C 147.272,44.6012 146.938,44.4346 146.5,44.5C 150.245,41.941 153.911,39.1077 157.5,36C 160.089,34.8035 162.756,33.8035 165.5,33C 185.838,30.8268 206.171,30.1601 226.5,31C 231.045,32.5462 235.378,34.5462 239.5,37C 240.126,37.7504 240.626,38.5838 241,39.5C 242.558,38.6548 243.558,39.3215 244,41.5C 244.333,41.1667 244.667,40.8333 245,40.5C 248.405,43.5407 252.239,46.0407 256.5,48C 258.957,51.0584 261.957,53.3917 265.5,55C 266.701,55.9025 267.535,57.0692 268,58.5C 268.333,61.5 268.667,64.5 269,67.5C 269.977,66.2264 270.811,66.2264 271.5,67.5 Z"/></g>
<g><path style="opacity:1" fill="#9d9ea3" d="M 261.5,84.5 C 261.5,81.5 261.5,78.5 261.5,75.5C 261.666,70.4889 261.499,65.4889 261,60.5C 256.219,56.5492 251.052,53.2159 245.5,50.5C 244.833,50.1667 244.167,49.8333 243.5,49.5C 243.5,48.8333 243.167,48.5 242.5,48.5C 237.232,44.5239 231.566,41.0239 225.5,38C 219.509,37.5005 213.509,37.3338 207.5,37.5C 193.395,37.5208 179.395,38.6875 165.5,41C 154.706,49.2942 144.372,58.1275 134.5,67.5C 142.27,56.562 151.604,47.062 162.5,39C 182.651,35.2196 202.985,33.8863 223.5,35C 237.952,41.1233 251.118,49.29 263,59.5C 263.667,67.1667 263.667,74.8333 263,82.5C 262.722,83.4158 262.222,84.0825 261.5,84.5 Z"/></g>
<g><path style="opacity:1" fill="#d48343" d="M 190.5,80.5 C 189.5,80.8333 188.833,81.5 188.5,82.5C 186.037,84.4611 183.703,86.6278 181.5,89C 176.383,90.5263 171.383,91.0263 166.5,90.5C 172.956,74.1316 178.623,57.4649 183.5,40.5C 190.646,39.3841 197.98,38.7174 205.5,38.5C 202.868,53.3986 197.868,67.3986 190.5,80.5 Z"/></g>
<g><path style="opacity:1" fill="#592d46" d="M 207.5,37.5 C 210.881,38.5218 214.214,39.8551 217.5,41.5C 214.469,49.8959 210.635,57.8959 206,65.5C 205.421,66.9285 205.588,68.2618 206.5,69.5C 205.127,69.3433 203.793,69.51 202.5,70C 198.905,74.1042 194.905,77.6042 190.5,80.5C 197.868,67.3986 202.868,53.3986 205.5,38.5C 197.98,38.7174 190.646,39.3841 183.5,40.5C 181.396,40.2011 179.396,40.5344 177.5,41.5C 172.747,55.243 166.914,68.5763 160,81.5C 158.119,85.3072 156.953,89.3072 156.5,93.5C 160.237,93.4953 163.571,92.4953 166.5,90.5C 171.383,91.0263 176.383,90.5263 181.5,89C 183.703,86.6278 186.037,84.4611 188.5,82.5C 187.118,85.3943 185.118,87.8943 182.5,90C 170.343,93.4734 158.01,94.9734 145.5,94.5C 140.985,85.8087 137.318,76.8087 134.5,67.5C 144.372,58.1275 154.706,49.2942 165.5,41C 179.395,38.6875 193.395,37.5208 207.5,37.5 Z"/></g>
<g><path style="opacity:1" fill="#d2ada9" d="M 207.5,37.5 C 213.509,37.3338 219.509,37.5005 225.5,38C 231.566,41.0239 237.232,44.5239 242.5,48.5C 241.5,49.8333 240.5,51.1667 239.5,52.5C 238.426,51.1154 237.093,49.9487 235.5,49C 234.668,48.3123 234.002,48.479 233.5,49.5C 231.569,54.1271 229.735,58.7938 228,63.5C 227.059,66.3926 225.393,68.7259 223,70.5C 218.651,67.5802 213.817,66.7469 208.5,68C 211.695,68.1805 214.695,68.6805 217.5,69.5C 213.833,69.5 210.167,69.5 206.5,69.5C 205.588,68.2618 205.421,66.9285 206,65.5C 210.635,57.8959 214.469,49.8959 217.5,41.5C 214.214,39.8551 210.881,38.5218 207.5,37.5 Z"/></g>
<g><path style="opacity:1" fill="#bd5a95" d="M 183.5,40.5 C 178.623,57.4649 172.956,74.1316 166.5,90.5C 163.571,92.4953 160.237,93.4953 156.5,93.5C 156.953,89.3072 158.119,85.3072 160,81.5C 166.914,68.5763 172.747,55.243 177.5,41.5C 179.396,40.5344 181.396,40.2011 183.5,40.5 Z"/></g>
<g><path style="opacity:1" fill="#1b285c" d="M 146.5,44.5 C 146.938,44.4346 147.272,44.6012 147.5,45C 140.491,51.535 133.824,58.3683 127.5,65.5C 125.166,67.1757 124.166,69.509 124.5,72.5C 122.076,75.0078 120.41,78.0078 119.5,81.5C 117.937,82.9448 116.604,84.6115 115.5,86.5C 113.642,88.8831 112.308,91.5498 111.5,94.5C 110.577,86.4249 110.577,78.4249 111.5,70.5C 115.599,63.2331 121.266,57.3998 128.5,53C 134.128,49.3523 140.128,46.5189 146.5,44.5 Z"/></g>
<g><path style="opacity:1" fill="#592d47" d="M 239.5,52.5 C 236.872,59.0901 233.705,65.4235 230,71.5C 229.26,72.7494 229.427,73.7494 230.5,74.5C 231.189,75.7736 232.023,75.7736 233,74.5C 237.02,68.4612 240.52,62.1279 243.5,55.5C 250.437,61.4119 256.437,68.0786 261.5,75.5C 261.5,78.5 261.5,81.5 261.5,84.5C 253.832,85.0562 246.166,85.2229 238.5,85C 231.797,79.3269 224.797,74.1602 217.5,69.5C 214.695,68.6805 211.695,68.1805 208.5,68C 213.817,66.7469 218.651,67.5802 223,70.5C 225.393,68.7259 227.059,66.3926 228,63.5C 229.735,58.7938 231.569,54.1271 233.5,49.5C 234.002,48.479 234.668,48.3123 235.5,49C 237.093,49.9487 238.426,51.1154 239.5,52.5 Z"/></g>
<g><path style="opacity:1" fill="#ca9696" d="M 245.5,50.5 C 251.052,53.2159 256.219,56.5492 261,60.5C 261.499,65.4889 261.666,70.4889 261.5,75.5C 256.437,68.0786 250.437,61.4119 243.5,55.5C 244.167,53.8333 244.833,52.1667 245.5,50.5 Z"/></g>
<g><path style="opacity:1" fill="#cd7d48" d="M 242.5,48.5 C 243.167,48.5 243.5,48.8333 243.5,49.5C 239.96,58.2469 235.627,66.5803 230.5,74.5C 229.427,73.7494 229.26,72.7494 230,71.5C 233.705,65.4235 236.872,59.0901 239.5,52.5C 240.5,51.1667 241.5,49.8333 242.5,48.5 Z"/></g>
<g><path style="opacity:1" fill="#bc5b90" d="M 243.5,49.5 C 244.167,49.8333 244.833,50.1667 245.5,50.5C 244.833,52.1667 244.167,53.8333 243.5,55.5C 240.52,62.1279 237.02,68.4612 233,74.5C 232.023,75.7736 231.189,75.7736 230.5,74.5C 235.627,66.5803 239.96,58.2469 243.5,49.5 Z"/></g>
<g><path style="opacity:1" fill="#989ca2" d="M 127.5,65.5 C 131.396,77.1325 135.729,88.6325 140.5,100C 155.443,99.6127 170.11,97.2794 184.5,93C 190.802,87.6991 196.802,82.0325 202.5,76C 207.57,73.5758 212.903,72.9091 218.5,74C 224.554,80.0541 230.554,86.0541 236.5,92C 246.538,93.9734 256.538,93.8067 266.5,91.5C 266.244,93.7761 264.91,94.9428 262.5,95C 252.804,95.6477 243.138,95.3144 233.5,94C 228.135,88.3005 222.469,82.9672 216.5,78C 211.057,76.9696 206.057,77.9696 201.5,81C 195.938,86.7304 190.271,92.2304 184.5,97.5C 173.345,99.6768 162.345,102.01 151.5,104.5C 147.202,105.2 142.869,105.533 138.5,105.5C 136.864,104.251 135.697,102.584 135,100.5C 131.182,91.1823 127.682,81.8489 124.5,72.5C 124.166,69.509 125.166,67.1757 127.5,65.5 Z"/></g>
<g><path style="opacity:1" fill="#717478" d="M 271.5,67.5 C 272.793,68.842 273.626,70.5087 274,72.5C 274.667,78.8333 274.667,85.1667 274,91.5C 272.525,95.1486 270.025,97.8153 266.5,99.5C 266.575,96.7938 266.908,94.1272 267.5,91.5C 268.718,83.8893 269.551,76.2226 270,68.5C 270.383,67.944 270.883,67.6107 271.5,67.5 Z"/></g>
<g><path style="opacity:1" fill="#1e2952" d="M 111.5,70.5 C 110.577,78.4249 110.577,86.4249 111.5,94.5C 109.284,98.2662 107.617,102.266 106.5,106.5C 104.212,112.074 102.212,117.741 100.5,123.5C 98.9711,112.134 99.4711,100.801 102,89.5C 104.138,82.558 107.304,76.2247 111.5,70.5 Z"/></g>
<g><path style="opacity:1" fill="#6f7175" d="M 124.5,72.5 C 127.682,81.8489 131.182,91.1823 135,100.5C 135.697,102.584 136.864,104.251 138.5,105.5C 136.046,106.227 133.713,107.227 131.5,108.5C 128.376,106.276 126.209,103.276 125,99.5C 122.853,93.5732 121.019,87.5732 119.5,81.5C 120.41,78.0078 122.076,75.0078 124.5,72.5 Z"/></g>
<g><path style="opacity:1" fill="#111f49" d="M 266.5,91.5 C 266.833,91.5 267.167,91.5 267.5,91.5C 266.908,94.1272 266.575,96.7938 266.5,99.5C 266.5,100.5 266.5,101.5 266.5,102.5C 252.443,98.5557 238.11,95.8891 223.5,94.5C 220.389,91.1244 217.389,87.6244 214.5,84C 211.118,83.1764 207.784,83.343 204.5,84.5C 201.167,87.8333 197.833,91.1667 194.5,94.5C 196.045,95.4519 197.712,95.7852 199.5,95.5C 194.68,96.4865 189.68,97.1532 184.5,97.5C 190.271,92.2304 195.938,86.7304 201.5,81C 206.057,77.9696 211.057,76.9696 216.5,78C 222.469,82.9672 228.135,88.3005 233.5,94C 243.138,95.3144 252.804,95.6477 262.5,95C 264.91,94.9428 266.244,93.7761 266.5,91.5 Z"/></g>
<g><path style="opacity:1" fill="#0c1e54" d="M 223.5,94.5 C 215.466,94.3018 207.466,94.6351 199.5,95.5C 197.712,95.7852 196.045,95.4519 194.5,94.5C 197.833,91.1667 201.167,87.8333 204.5,84.5C 207.784,83.343 211.118,83.1764 214.5,84C 217.389,87.6244 220.389,91.1244 223.5,94.5 Z"/></g>
<g><path style="opacity:1" fill="#424242" d="M 115.5,86.5 C 116.497,86.4701 117.164,86.9701 117.5,88C 119.474,95.1135 122.64,101.613 127,107.5C 127.667,108.5 127.667,109.5 127,110.5C 122.008,115.812 118.008,121.812 115,128.5C 109.649,122.132 106.815,114.799 106.5,106.5C 107.617,102.266 109.284,98.2662 111.5,94.5C 112.308,91.5498 113.642,88.8831 115.5,86.5 Z"/></g>
<g><path style="opacity:1" fill="#393b3f" d="M 223.5,94.5 C 238.11,95.8891 252.443,98.5557 266.5,102.5C 269.118,103.945 271.618,105.611 274,107.5C 274.667,108.833 274.667,110.167 274,111.5C 268.844,115.326 263.344,118.493 257.5,121C 256.025,124.021 255.025,127.188 254.5,130.5C 253.833,130.5 253.5,130.167 253.5,129.5C 253.826,125.116 253.492,120.783 252.5,116.5C 247.204,114.568 241.871,112.735 236.5,111C 222.537,109.468 208.537,109.134 194.5,110C 186.777,110.714 179.444,112.548 172.5,115.5C 170.901,115.232 169.568,115.566 168.5,116.5C 159.835,118.999 151.501,122.332 143.5,126.5C 141.031,122.921 139.864,118.921 140,114.5C 144.207,109.97 149.374,106.803 155.5,105C 154.207,104.51 152.873,104.343 151.5,104.5C 162.345,102.01 173.345,99.6768 184.5,97.5C 189.68,97.1532 194.68,96.4865 199.5,95.5C 207.466,94.6351 215.466,94.3018 223.5,94.5 Z"/></g>
<g><path style="opacity:1" fill="#0d1d47" d="M 151.5,104.5 C 152.873,104.343 154.207,104.51 155.5,105C 149.374,106.803 144.207,109.97 140,114.5C 139.864,118.921 141.031,122.921 143.5,126.5C 142.5,133.832 141.5,141.166 140.5,148.5C 139.015,151.448 136.682,153.448 133.5,154.5C 129.888,152.723 127.055,150.056 125,146.5C 124.791,152.581 124.291,158.581 123.5,164.5C 123.167,164.5 122.833,164.5 122.5,164.5C 119.325,165.091 116.991,164.091 115.5,161.5C 113.733,159.208 112.733,156.542 112.5,153.5C 113.214,135.998 119.547,120.998 131.5,108.5C 133.713,107.227 136.046,106.227 138.5,105.5C 142.869,105.533 147.202,105.2 151.5,104.5 Z"/></g>
<g><path style="opacity:1" fill="#35383e" d="M 119.5,81.5 C 121.019,87.5732 122.853,93.5732 125,99.5C 126.209,103.276 128.376,106.276 131.5,108.5C 119.547,120.998 113.214,135.998 112.5,153.5C 102.358,145.892 98.358,135.892 100.5,123.5C 102.212,117.741 104.212,112.074 106.5,106.5C 106.815,114.799 109.649,122.132 115,128.5C 118.008,121.812 122.008,115.812 127,110.5C 127.667,109.5 127.667,108.5 127,107.5C 122.64,101.613 119.474,95.1135 117.5,88C 117.164,86.9701 116.497,86.4701 115.5,86.5C 116.604,84.6115 117.937,82.9448 119.5,81.5 Z"/></g>
<g><path style="opacity:1" fill="#dbe7ea" d="M 172.5,115.5 C 180.506,115.667 186.34,119.334 190,126.5C 190.667,131.167 190.667,135.833 190,140.5C 189.861,143.445 188.694,145.779 186.5,147.5C 188.362,141.124 187.529,135.124 184,129.5C 183.598,130.872 183.098,132.205 182.5,133.5C 181.5,134.833 180.5,134.833 179.5,133.5C 178.132,131.363 177.132,129.03 176.5,126.5C 174.803,127.364 173.637,128.697 173,130.5C 172.393,134.537 172.56,138.537 173.5,142.5C 173.19,143.738 172.69,143.738 172,142.5C 169.398,138.526 167.898,134.193 167.5,129.5C 166.451,123.786 168.117,119.12 172.5,115.5 Z"/></g>
<g><path style="opacity:1" fill="#a75a49" d="M 168.5,116.5 C 169.568,115.566 170.901,115.232 172.5,115.5C 168.117,119.12 166.451,123.786 167.5,129.5C 165.795,125.039 166.462,120.872 169.5,117C 169.272,116.601 168.938,116.435 168.5,116.5 Z"/></g>
<g><path style="opacity:1" fill="#191a20" d="M 129.5,128.5 C 131.89,128.685 132.89,130.018 132.5,132.5C 131.167,137.833 129.833,137.833 128.5,132.5C 128.623,131.075 128.957,129.742 129.5,128.5 Z"/></g>
<g><path style="opacity:1" fill="#99827a" d="M 253.5,129.5 C 253.5,130.167 253.833,130.5 254.5,130.5C 254.425,133.206 254.092,135.873 253.5,138.5C 252.203,136.094 252.203,133.094 253.5,129.5 Z"/></g>
<g><path style="opacity:1" fill="#f9c1ac" d="M 253.5,129.5 C 252.203,133.094 252.203,136.094 253.5,138.5C 254.737,139.965 255.737,141.632 256.5,143.5C 256.427,145.027 257.094,146.027 258.5,146.5C 259.038,148.117 259.371,149.784 259.5,151.5C 263.042,151.187 266.375,151.521 269.5,152.5C 265.774,152.177 262.107,152.511 258.5,153.5C 260.969,154.168 263.302,154.835 265.5,155.5C 263.473,155.338 261.473,155.505 259.5,156C 257.279,161.612 253.946,166.445 249.5,170.5C 246.467,172.016 243.8,174.016 241.5,176.5C 236.945,179.945 231.945,182.612 226.5,184.5C 220.5,183.167 214.5,183.167 208.5,184.5C 202.262,185.446 196.262,187.28 190.5,190C 177.117,190.827 164.451,188.327 152.5,182.5C 151.713,180.896 150.38,180.229 148.5,180.5C 145.563,175.441 144.563,170.108 145.5,164.5C 145.66,162.801 145.494,161.134 145,159.5C 144.329,158.748 143.496,158.414 142.5,158.5C 142.451,154.922 141.785,151.589 140.5,148.5C 141.5,141.166 142.5,133.832 143.5,126.5C 151.501,122.332 159.835,118.999 168.5,116.5C 168.938,116.435 169.272,116.601 169.5,117C 166.462,120.872 165.795,125.039 167.5,129.5C 167.898,134.193 169.398,138.526 172,142.5C 172.69,143.738 173.19,143.738 173.5,142.5C 174.879,145.386 176.879,147.886 179.5,150C 180.833,150.667 182.167,150.667 183.5,150C 184.373,148.955 185.373,148.122 186.5,147.5C 188.694,145.779 189.861,143.445 190,140.5C 190.667,135.833 190.667,131.167 190,126.5C 186.34,119.334 180.506,115.667 172.5,115.5C 179.444,112.548 186.777,110.714 194.5,110C 208.537,109.134 222.537,109.468 236.5,111C 241.871,112.735 247.204,114.568 252.5,116.5C 253.492,120.783 253.826,125.116 253.5,129.5 Z"/></g>
<g><path style="opacity:1" fill="#9e4f3e" d="M 186.5,147.5 C 185.373,148.122 184.373,148.955 183.5,150C 182.167,150.667 180.833,150.667 179.5,150C 176.879,147.886 174.879,145.386 173.5,142.5C 172.56,138.537 172.393,134.537 173,130.5C 173.637,128.697 174.803,127.364 176.5,126.5C 177.132,129.03 178.132,131.363 179.5,133.5C 180.5,134.833 181.5,134.833 182.5,133.5C 183.098,132.205 183.598,130.872 184,129.5C 187.529,135.124 188.362,141.124 186.5,147.5 Z"/></g>
<g><path style="opacity:1" fill="#3f4042" d="M 258.5,146.5 C 257.094,146.027 256.427,145.027 256.5,143.5C 262.675,140.044 269.175,139.044 276,140.5C 276.617,141.449 276.451,142.282 275.5,143C 269.596,143.315 263.929,144.482 258.5,146.5 Z"/></g>
<g><path style="opacity:1" fill="#c37a67" d="M 227.5,135.5 C 228.239,135.369 228.906,135.536 229.5,136C 222.809,142.331 223.476,142.998 231.5,138C 232.833,137.333 234.167,137.333 235.5,138C 233.668,138.748 232.001,139.748 230.5,141C 231.167,141.333 231.833,141.667 232.5,142C 228.167,144.013 223.834,145.68 219.5,147C 221.807,142.876 224.473,139.042 227.5,135.5 Z"/></g>
<g><path style="opacity:1" fill="#a65847" d="M 205.5,149.5 C 208.157,149.162 210.49,149.829 212.5,151.5C 212.023,152.478 211.357,153.311 210.5,154C 208.19,154.497 205.857,154.663 203.5,154.5C 203.392,152.486 204.058,150.82 205.5,149.5 Z"/></g>
<g><path style="opacity:1" fill="#373839" d="M 269.5,152.5 C 272.313,152.548 274.979,153.215 277.5,154.5C 278.429,155.689 278.762,157.022 278.5,158.5C 274.196,157.373 269.863,156.373 265.5,155.5C 263.302,154.835 260.969,154.168 258.5,153.5C 262.107,152.511 265.774,152.177 269.5,152.5 Z"/></g>
<g><path style="opacity:1" fill="#313235" d="M 140.5,148.5 C 141.785,151.589 142.451,154.922 142.5,158.5C 138.274,160.888 134.774,164.221 132,168.5C 131.329,169.252 130.496,169.586 129.5,169.5C 127.091,168.299 125.091,166.633 123.5,164.5C 124.291,158.581 124.791,152.581 125,146.5C 127.055,150.056 129.888,152.723 133.5,154.5C 136.682,153.448 139.015,151.448 140.5,148.5 Z"/></g>
<g><path style="opacity:1" fill="#d9dcdc" d="M 306.5,156.5 C 307.833,157.167 307.833,157.167 306.5,156.5 Z"/></g>
<g><path style="opacity:1" fill="#858585" d="M 142.5,158.5 C 143.496,158.414 144.329,158.748 145,159.5C 145.494,161.134 145.66,162.801 145.5,164.5C 144.504,164.586 143.671,164.252 143,163.5C 140.534,167.299 137.368,170.466 133.5,173C 134.056,173.383 134.389,173.883 134.5,174.5C 133.833,174.5 133.167,174.5 132.5,174.5C 132.09,171.569 130.756,170.903 128.5,172.5C 129.11,171.609 129.443,170.609 129.5,169.5C 130.496,169.586 131.329,169.252 132,168.5C 134.774,164.221 138.274,160.888 142.5,158.5 Z"/></g>
<g><path style="opacity:1" fill="#a75544" d="M 210.5,178.5 C 209.833,177.167 208.833,176.167 207.5,175.5C 208.324,172.236 208.658,168.902 208.5,165.5C 207.5,165.5 206.5,165.5 205.5,165.5C 211.587,164.716 217.254,162.549 222.5,159C 223.833,158.333 223.833,157.667 222.5,157C 224.821,156.163 227.155,155.83 229.5,156C 228.095,157.269 226.429,157.769 224.5,157.5C 222.56,166.397 217.893,173.397 210.5,178.5 Z"/></g>
<g><path style="opacity:1" fill="#bdbebf" d="M 306.5,157.5 C 304.256,159.584 302.589,162.084 301.5,165C 302.55,168.455 302.717,171.955 302,175.5C 301.248,171.163 300.914,166.829 301,162.5C 302.076,159.921 303.909,158.254 306.5,157.5 Z"/></g>
<g><path style="opacity:1" fill="#70423f" d="M 205.5,165.5 C 206.5,165.5 207.5,165.5 208.5,165.5C 208.658,168.902 208.324,172.236 207.5,175.5C 202.057,172.079 196.057,170.745 189.5,171.5C 186.822,168.668 184.488,165.501 182.5,162C 184.286,161.215 185.786,160.049 187,158.5C 187.617,159.449 187.451,160.282 186.5,161C 192.306,164.534 198.64,166.034 205.5,165.5 Z"/></g>
<g><path style="opacity:1" fill="#424346" d="M 115.5,161.5 C 116.991,164.091 119.325,165.091 122.5,164.5C 118.428,166.71 114.428,169.21 110.5,172C 109.207,172.49 107.873,172.657 106.5,172.5C 106.343,171.127 106.51,169.793 107,168.5C 109.628,165.79 112.461,163.456 115.5,161.5 Z"/></g>
<g><path style="opacity:1" fill="#c17396" d="M 189.5,171.5 C 196.057,170.745 202.057,172.079 207.5,175.5C 208.833,176.167 209.833,177.167 210.5,178.5C 209.942,179.79 208.942,180.623 207.5,181C 198.838,182.832 192.838,179.665 189.5,171.5 Z"/></g>
<g><path style="opacity:1" fill="#404243" d="M 132.5,174.5 C 126.59,178.634 121.257,183.468 116.5,189C 114.08,189.915 112.747,189.082 112.5,186.5C 115.777,179.522 121.11,174.855 128.5,172.5C 130.756,170.903 132.09,171.569 132.5,174.5 Z"/></g>
<g><path style="opacity:1" fill="#8a8a8b" d="M 249.5,170.5 C 250.494,173.804 251.494,177.137 252.5,180.5C 250.711,184.525 247.878,185.858 244,184.5C 243.439,181.721 242.606,179.054 241.5,176.5C 243.8,174.016 246.467,172.016 249.5,170.5 Z"/></g>
<g><path style="opacity:1" fill="#434346" d="M 145.5,164.5 C 144.563,170.108 145.563,175.441 148.5,180.5C 146.565,181.15 144.565,181.483 142.5,181.5C 139.418,179.628 136.751,177.295 134.5,174.5C 134.389,173.883 134.056,173.383 133.5,173C 137.368,170.466 140.534,167.299 143,163.5C 143.671,164.252 144.504,164.586 145.5,164.5 Z"/></g>
<g><path style="opacity:1" fill="#d0d0d1" d="M 319.5,194.5 C 318.167,194.5 316.833,194.5 315.5,194.5C 315.825,199.382 313.825,202.882 309.5,205C 305.793,206.402 302.126,207.902 298.5,209.5C 297.637,207.229 297.637,204.895 298.5,202.5C 292.801,203.567 287.301,202.9 282,200.5C 279.968,205.99 280.134,211.324 282.5,216.5C 280.956,216.297 279.622,215.63 278.5,214.5C 277.335,215.86 277.668,216.86 279.5,217.5C 279.5,217.833 279.5,218.167 279.5,218.5C 279.291,219.922 278.791,221.255 278,222.5C 269.696,210.503 267.196,197.503 270.5,183.5C 270.376,182.893 270.043,182.56 269.5,182.5C 275.489,180.127 281.822,179.127 288.5,179.5C 286.058,172.463 287.558,166.463 293,161.5C 291.344,164.861 290.177,168.528 289.5,172.5C 289.442,175.057 290.109,177.39 291.5,179.5C 298.83,180.583 305.83,182.75 312.5,186C 315.024,187.883 316.358,190.383 316.5,193.5C 317.791,193.263 318.791,193.596 319.5,194.5 Z"/></g>
<g><path style="opacity:1" fill="#838485" d="M 148.5,180.5 C 150.38,180.229 151.713,180.896 152.5,182.5C 152.392,184.514 153.058,186.18 154.5,187.5C 154.421,188.93 154.754,190.264 155.5,191.5C 152.672,193.748 149.672,195.748 146.5,197.5C 145.522,197.023 144.689,196.357 144,195.5C 143.777,190.75 143.277,186.084 142.5,181.5C 144.565,181.483 146.565,181.15 148.5,180.5 Z"/></g>
<g><path style="opacity:1" fill="#977c74" d="M 208.5,184.5 C 214.5,183.167 220.5,183.167 226.5,184.5C 225.167,184.833 223.833,185.167 222.5,185.5C 218.03,184.514 213.363,184.181 208.5,184.5 Z"/></g>
<g><path style="opacity:1" fill="#9ca0a4" d="M 269.5,182.5 C 270.043,182.56 270.376,182.893 270.5,183.5C 267.196,197.503 269.696,210.503 278,222.5C 278.791,221.255 279.291,219.922 279.5,218.5C 280.64,219.801 281.973,220.968 283.5,222C 282.557,224.8 282.724,227.634 284,230.5C 285.171,231.893 286.671,232.727 288.5,233C 289.738,233.69 289.738,234.19 288.5,234.5C 286.833,234.5 285.167,234.5 283.5,234.5C 275.257,234.757 271.09,230.757 271,222.5C 270.292,221.619 269.458,220.953 268.5,220.5C 268.5,220.167 268.5,219.833 268.5,219.5C 268.405,216.728 267.071,214.728 264.5,213.5C 264.624,212.893 264.957,212.56 265.5,212.5C 266.765,211.486 267.431,209.986 267.5,208C 267.087,203.112 266.42,198.279 265.5,193.5C 263.245,191.312 261.078,191.646 259,194.5C 258.502,197.817 258.335,201.15 258.5,204.5C 257.9,207.625 256.733,207.958 255,205.5C 254.299,202.072 254.632,198.738 256,195.5C 259.195,192.683 262.362,190.017 265.5,187.5C 266.975,185.993 268.309,184.327 269.5,182.5 Z"/></g>
<g><path style="opacity:1" fill="#522f1a" d="M 301.5,191.5 C 299.052,192.473 296.385,192.806 293.5,192.5C 287.102,192.46 281.102,190.96 275.5,188C 284.479,186.236 293.145,187.402 301.5,191.5 Z"/></g>
<g><path style="opacity:1" fill="#939091" d="M 293.5,192.5 C 296.385,192.806 299.052,192.473 301.5,191.5C 303.068,192.473 304.735,192.64 306.5,192C 307.725,190.437 309.225,189.27 311,188.5C 312.257,188.85 312.591,189.517 312,190.5C 310.829,191.893 309.329,192.727 307.5,193C 302.648,193.815 297.981,193.648 293.5,192.5 Z"/></g>
<g><path style="opacity:1" fill="#2f2f33" d="M 152.5,182.5 C 164.451,188.327 177.117,190.827 190.5,190C 196.262,187.28 202.262,185.446 208.5,184.5C 213.363,184.181 218.03,184.514 222.5,185.5C 219.782,186.104 217.449,187.437 215.5,189.5C 213.924,188.925 212.258,188.592 210.5,188.5C 206.891,189.471 203.224,190.137 199.5,190.5C 197.737,189.046 196.403,189.38 195.5,191.5C 188.167,191.5 180.833,191.5 173.5,191.5C 166.924,191.185 160.591,189.852 154.5,187.5C 153.058,186.18 152.392,184.514 152.5,182.5 Z"/></g>
<g><path style="opacity:1" fill="#a13b3e" d="M 199.5,190.5 C 198.129,192.459 197.129,194.625 196.5,197C 193.92,198.144 191.253,198.978 188.5,199.5C 190.854,197.812 192.854,195.812 194.5,193.5C 195.338,193.158 195.672,192.492 195.5,191.5C 196.403,189.38 197.737,189.046 199.5,190.5 Z"/></g>
<g><path style="opacity:1" fill="#afb0b2" d="M 173.5,191.5 C 180.833,191.5 188.167,191.5 195.5,191.5C 195.672,192.492 195.338,193.158 194.5,193.5C 187.5,192.833 180.5,192.167 173.5,191.5 Z"/></g>
<g><path style="opacity:1" fill="#29292a" d="M 319.5,194.5 C 329.892,199.107 333.725,207.107 331,218.5C 327.027,237.253 315.527,244.586 296.5,240.5C 293.833,238.5 291.167,236.5 288.5,234.5C 289.738,234.19 289.738,233.69 288.5,233C 286.671,232.727 285.171,231.893 284,230.5C 282.724,227.634 282.557,224.8 283.5,222C 281.973,220.968 280.64,219.801 279.5,218.5C 279.5,218.167 279.5,217.833 279.5,217.5C 281.124,217.36 282.29,218.027 283,219.5C 286.3,217.443 286.133,216.443 282.5,216.5C 280.134,211.324 279.968,205.99 282,200.5C 287.301,202.9 292.801,203.567 298.5,202.5C 297.637,204.895 297.637,207.229 298.5,209.5C 302.126,207.902 305.793,206.402 309.5,205C 313.825,202.882 315.825,199.382 315.5,194.5C 316.833,194.5 318.167,194.5 319.5,194.5 Z"/></g>
<g><path style="opacity:1" fill="#d0312f" d="M 215.5,189.5 C 216.423,191.767 217.256,194.1 218,196.5C 228.486,209.492 240.652,220.492 254.5,229.5C 253.571,230.315 252.571,231.148 251.5,232C 253.126,231.805 254.793,231.805 256.5,232C 254,233.134 252.833,234.968 253,237.5C 253.667,236.833 254.333,236.167 255,235.5C 257.009,236.833 258.676,238.5 260,240.5C 260.499,236.514 260.666,232.514 260.5,228.5C 261.785,225.386 264.119,223.553 267.5,223C 268.252,222.329 268.586,221.496 268.5,220.5C 269.458,220.953 270.292,221.619 271,222.5C 271.09,230.757 275.257,234.757 283.5,234.5C 283.918,235.222 284.584,235.722 285.5,236C 284.576,236.85 284.576,237.85 285.5,239C 283.978,242.662 283.145,246.495 283,250.5C 282.067,254.395 279.567,256.562 275.5,257C 255.241,258.264 241.241,249.431 233.5,230.5C 233.5,228.833 233.5,227.167 233.5,225.5C 230.119,225.46 226.786,225.793 223.5,226.5C 222.5,225.833 221.5,225.167 220.5,224.5C 219.91,223.234 219.41,221.901 219,220.5C 214.7,217.202 210.7,213.535 207,209.5C 206.333,210.5 206.333,211.5 207,212.5C 211.114,216.442 214.947,220.442 218.5,224.5C 218.5,224.833 218.5,225.167 218.5,225.5C 217.833,226.167 217.167,226.833 216.5,227.5C 212.197,224.029 208.364,220.029 205,215.5C 204.333,216.833 204.333,218.167 205,219.5C 208.781,223.109 212.281,226.776 215.5,230.5C 214.63,233.515 212.964,234.515 210.5,233.5C 209.833,232.833 209.167,232.167 208.5,231.5C 207.981,228.225 205.981,226.892 202.5,227.5C 198.793,228.011 195.126,228.678 191.5,229.5C 190.351,229.209 189.684,228.376 189.5,227C 191.458,221.922 191.792,216.755 190.5,211.5C 188.712,212.283 187.712,213.616 187.5,215.5C 184.49,218.874 181.49,222.208 178.5,225.5C 176.689,225.572 175.356,226.405 174.5,228C 173.652,230.77 173.319,233.603 173.5,236.5C 173.5,236.833 173.5,237.167 173.5,237.5C 172.325,237.281 171.325,237.614 170.5,238.5C 171.309,240.071 171.643,241.738 171.5,243.5C 169.738,243.643 168.071,243.309 166.5,242.5C 164.326,245.081 162.16,245.081 160,242.5C 157.382,243.738 154.715,243.738 152,242.5C 150.238,242.944 150.405,243.444 152.5,244C 150.668,244.748 149.001,245.748 147.5,247C 150.287,246.377 153.12,245.544 156,244.5C 160.191,245.423 164.358,246.423 168.5,247.5C 167.975,248.192 167.308,248.692 166.5,249C 166.728,249.399 167.062,249.565 167.5,249.5C 167.5,249.833 167.5,250.167 167.5,250.5C 161.29,252.552 157.79,256.885 157,263.5C 154.609,265.606 153.442,267.94 153.5,270.5C 153.107,272.284 152.441,273.95 151.5,275.5C 141.176,277.683 136.676,273.349 138,262.5C 131.726,257.178 129.559,250.511 131.5,242.5C 131.703,240.956 132.37,239.622 133.5,238.5C 136.317,236.183 138.984,233.683 141.5,231C 157.195,220.49 172.862,209.99 188.5,199.5C 191.253,198.978 193.92,198.144 196.5,197C 197.129,194.625 198.129,192.459 199.5,190.5C 203.224,190.137 206.891,189.471 210.5,188.5C 212.258,188.592 213.924,188.925 215.5,189.5 Z M 187.5,215.5 C 188.097,215.735 188.43,216.235 188.5,217C 187.055,221.727 186.388,226.56 186.5,231.5C 185.733,232.172 185.066,233.005 184.5,234C 185.423,236.041 185.756,238.208 185.5,240.5C 185.632,243.57 185.299,246.57 184.5,249.5C 183.167,249.167 181.833,248.833 180.5,248.5C 177.167,247.167 173.833,247.167 170.5,248.5C 169.128,246.65 169.628,245.317 172,244.5C 172.29,242.08 172.79,239.746 173.5,237.5C 173.5,237.167 173.5,236.833 173.5,236.5C 174.615,232.676 176.281,229.01 178.5,225.5C 181.49,222.208 184.49,218.874 187.5,215.5 Z"/></g>
<g><path style="opacity:1" fill="#ef866c" d="M 208.5,192.5 C 209.376,192.369 210.043,192.702 210.5,193.5C 209.2,196.432 207.2,198.766 204.5,200.5C 203.417,199.635 203.251,198.635 204,197.5C 205.707,195.963 207.207,194.296 208.5,192.5 Z"/></g>
<g><path style="opacity:1" fill="#ea846c" d="M 213.5,194.5 C 214.598,195.601 214.765,196.934 214,198.5C 211.843,200.718 209.343,201.885 206.5,202C 209.039,199.63 211.372,197.13 213.5,194.5 Z"/></g>
<g><path style="opacity:1" fill="#f28d71" d="M 207.5,203.5 C 209.793,205.612 212.293,207.612 215,209.5C 215.667,210.5 215.667,211.5 215,212.5C 211.115,210.466 208.615,207.466 207.5,203.5 Z"/></g>
<g><path style="opacity:1" fill="#d7d8d8" d="M 265.5,187.5 C 262.362,190.017 259.195,192.683 256,195.5C 254.632,198.738 254.299,202.072 255,205.5C 256.733,207.958 257.9,207.625 258.5,204.5C 260.146,207.81 262.48,210.477 265.5,212.5C 264.957,212.56 264.624,212.893 264.5,213.5C 267.071,214.728 268.405,216.728 268.5,219.5C 262.908,216.407 258.074,212.407 254,207.5C 250.541,196.489 254.374,189.822 265.5,187.5 Z"/></g>
<g><path style="opacity:1" fill="#b58b80" d="M 283.5,209.5 C 295.126,209.093 295.959,211.093 286,215.5C 282.708,214.449 281.875,212.449 283.5,209.5 Z"/></g>
<g><path style="opacity:1" fill="#9f3b3d" d="M 191.5,229.5 C 191.5,229.833 191.5,230.167 191.5,230.5C 189.708,230.366 188.042,230.699 186.5,231.5C 186.388,226.56 187.055,221.727 188.5,217C 188.43,216.235 188.097,215.735 187.5,215.5C 187.712,213.616 188.712,212.283 190.5,211.5C 191.792,216.755 191.458,221.922 189.5,227C 189.684,228.376 190.351,229.209 191.5,229.5 Z"/></g>
<g><path style="opacity:1" fill="#61757a" d="M 282.5,216.5 C 286.133,216.443 286.3,217.443 283,219.5C 282.29,218.027 281.124,217.36 279.5,217.5C 277.668,216.86 277.335,215.86 278.5,214.5C 279.622,215.63 280.956,216.297 282.5,216.5 Z"/></g>
<g><path style="opacity:1" fill="#e78b68" d="M 216.5,227.5 C 217.574,228.885 218.907,230.051 220.5,231C 218.803,231.384 217.137,231.218 215.5,230.5C 212.281,226.776 208.781,223.109 205,219.5C 204.333,218.167 204.333,216.833 205,215.5C 208.364,220.029 212.197,224.029 216.5,227.5 Z"/></g>
<g><path style="opacity:1" fill="#f4886e" d="M 220.5,224.5 C 219.833,224.5 219.167,224.5 218.5,224.5C 214.947,220.442 211.114,216.442 207,212.5C 206.333,211.5 206.333,210.5 207,209.5C 210.7,213.535 214.7,217.202 219,220.5C 219.41,221.901 219.91,223.234 220.5,224.5 Z"/></g>
<g><path style="opacity:1" fill="#633518" d="M 233.5,230.5 C 232.784,232.556 232.117,234.723 231.5,237C 232.381,237.708 233.047,238.542 233.5,239.5C 232.761,239.369 232.094,239.536 231.5,240C 232.252,240.671 232.586,241.504 232.5,242.5C 230.284,239.556 227.284,237.889 223.5,237.5C 223.5,233.833 223.5,230.167 223.5,226.5C 226.786,225.793 230.119,225.46 233.5,225.5C 233.5,227.167 233.5,228.833 233.5,230.5 Z"/></g>
<g><path style="opacity:1" fill="#613110" d="M 208.5,231.5 C 208.325,233.621 208.659,235.621 209.5,237.5C 205.167,237.5 200.833,237.5 196.5,237.5C 195.167,237.5 193.833,237.5 192.5,237.5C 192.802,234.941 192.468,232.607 191.5,230.5C 191.5,230.167 191.5,229.833 191.5,229.5C 195.126,228.678 198.793,228.011 202.5,227.5C 205.981,226.892 207.981,228.225 208.5,231.5 Z"/></g>
<g><path style="opacity:1" fill="#b15553" d="M 178.5,225.5 C 176.281,229.01 174.615,232.676 173.5,236.5C 173.319,233.603 173.652,230.77 174.5,228C 175.356,226.405 176.689,225.572 178.5,225.5 Z"/></g>
<g><path style="opacity:1" fill="#4e2f1c" d="M 191.5,230.5 C 192.468,232.607 192.802,234.941 192.5,237.5C 193.833,237.5 195.167,237.5 196.5,237.5C 195.152,238.186 193.985,239.186 193,240.5C 191.644,239.62 190.144,239.286 188.5,239.5C 188.649,240.552 188.483,241.552 188,242.5C 187.583,241.244 186.75,240.577 185.5,240.5C 185.756,238.208 185.423,236.041 184.5,234C 185.066,233.005 185.733,232.172 186.5,231.5C 188.042,230.699 189.708,230.366 191.5,230.5 Z"/></g>
<g><path style="opacity:1" fill="#9d383b" d="M 233.5,230.5 C 241.241,249.431 255.241,258.264 275.5,257C 279.567,256.562 282.067,254.395 283,250.5C 283.145,246.495 283.978,242.662 285.5,239C 284.576,237.85 284.576,236.85 285.5,236C 284.584,235.722 283.918,235.222 283.5,234.5C 285.167,234.5 286.833,234.5 288.5,234.5C 291.167,236.5 293.833,238.5 296.5,240.5C 297.132,246.909 294.465,251.242 288.5,253.5C 287.96,254.748 287.293,255.915 286.5,257C 274.934,263.795 263.268,264.128 251.5,258C 244.269,252.937 238.269,246.77 233.5,239.5C 233.047,238.542 232.381,237.708 231.5,237C 232.117,234.723 232.784,232.556 233.5,230.5 Z"/></g>
<g><path style="opacity:1" fill="#a83033" d="M 260.5,228.5 C 260.666,232.514 260.499,236.514 260,240.5C 258.676,238.5 257.009,236.833 255,235.5C 254.333,236.167 253.667,236.833 253,237.5C 252.833,234.968 254,233.134 256.5,232C 254.793,231.805 253.126,231.805 251.5,232C 252.571,231.148 253.571,230.315 254.5,229.5C 256.17,229.751 257.67,230.418 259,231.5C 259.232,230.263 259.732,229.263 260.5,228.5 Z"/></g>
<g><path style="opacity:1" fill="#643316" d="M 218.5,225.5 C 220.017,225.511 221.184,226.177 222,227.5C 222.667,230.167 222.667,232.833 222,235.5C 218.591,236.622 215.091,236.789 211.5,236C 210.748,235.329 210.414,234.496 210.5,233.5C 212.964,234.515 214.63,233.515 215.5,230.5C 217.137,231.218 218.803,231.384 220.5,231C 218.907,230.051 217.574,228.885 216.5,227.5C 217.167,226.833 217.833,226.167 218.5,225.5 Z"/></g>
<g><path style="opacity:1" fill="#bc9d46" d="M 218.5,225.5 C 218.5,225.167 218.5,224.833 218.5,224.5C 219.167,224.5 219.833,224.5 220.5,224.5C 221.5,225.167 222.5,225.833 223.5,226.5C 223.5,230.167 223.5,233.833 223.5,237.5C 218.833,238.833 214.167,238.833 209.5,237.5C 208.659,235.621 208.325,233.621 208.5,231.5C 209.167,232.167 209.833,232.833 210.5,233.5C 210.414,234.496 210.748,235.329 211.5,236C 215.091,236.789 218.591,236.622 222,235.5C 222.667,232.833 222.667,230.167 222,227.5C 221.184,226.177 220.017,225.511 218.5,225.5 Z"/></g>
<g><path style="opacity:1" fill="#172b65" d="M 196.5,237.5 C 200.833,237.5 205.167,237.5 209.5,237.5C 214.167,238.833 218.833,238.833 223.5,237.5C 227.284,237.889 230.284,239.556 232.5,242.5C 232.5,245.167 232.5,247.833 232.5,250.5C 234.099,250.232 235.432,250.566 236.5,251.5C 235.761,251.369 235.094,251.536 234.5,252C 235.337,253.011 235.67,254.178 235.5,255.5C 235.397,267.961 236.397,280.295 238.5,292.5C 237.609,294.291 236.609,296.124 235.5,298C 230.669,300.084 225.669,301.584 220.5,302.5C 218.4,302.523 216.567,301.856 215,300.5C 213.405,301.356 212.572,302.689 212.5,304.5C 211.728,305.694 210.728,306.694 209.5,307.5C 201.778,307.767 194.111,307.434 186.5,306.5C 192.624,302.2 197.124,296.533 200,289.5C 201.555,283.203 200.055,277.87 195.5,273.5C 193.774,271.18 193.107,268.513 193.5,265.5C 193.722,261.158 192.389,257.491 189.5,254.5C 189.167,253.5 188.5,252.833 187.5,252.5C 187.158,251.662 186.492,251.328 185.5,251.5C 185.167,250.833 184.833,250.167 184.5,249.5C 185.299,246.57 185.632,243.57 185.5,240.5C 186.75,240.577 187.583,241.244 188,242.5C 188.483,241.552 188.649,240.552 188.5,239.5C 190.144,239.286 191.644,239.62 193,240.5C 193.985,239.186 195.152,238.186 196.5,237.5 Z"/></g>
<g><path style="opacity:1" fill="#af3334" d="M 173.5,237.5 C 172.79,239.746 172.29,242.08 172,244.5C 169.628,245.317 169.128,246.65 170.5,248.5C 169.791,249.404 168.791,249.737 167.5,249.5C 167.062,249.565 166.728,249.399 166.5,249C 167.308,248.692 167.975,248.192 168.5,247.5C 164.358,246.423 160.191,245.423 156,244.5C 153.12,245.544 150.287,246.377 147.5,247C 149.001,245.748 150.668,244.748 152.5,244C 150.405,243.444 150.238,242.944 152,242.5C 154.715,243.738 157.382,243.738 160,242.5C 162.16,245.081 164.326,245.081 166.5,242.5C 168.071,243.309 169.738,243.643 171.5,243.5C 171.643,241.738 171.309,240.071 170.5,238.5C 171.325,237.614 172.325,237.281 173.5,237.5 Z"/></g>
<g><path style="opacity:1" fill="#a23b3d" d="M 131.5,242.5 C 129.559,250.511 131.726,257.178 138,262.5C 136.676,273.349 141.176,277.683 151.5,275.5C 150.506,277.334 150.506,279.001 151.5,280.5C 151.5,281.167 151.5,281.833 151.5,282.5C 150.833,282.5 150.5,282.833 150.5,283.5C 144.862,283.625 140.196,281.625 136.5,277.5C 137.52,275.568 137.687,273.568 137,271.5C 134.333,266.833 131.667,262.167 129,257.5C 128.333,254.167 128.333,250.833 129,247.5C 129.099,245.347 129.933,243.681 131.5,242.5 Z"/></g>
<g><path style="opacity:1" fill="#fae1c3" d="M 180.5,248.5 C 181.833,248.833 183.167,249.167 184.5,249.5C 184.833,250.167 185.167,250.833 185.5,251.5C 183.067,252.329 180.733,251.829 178.5,250C 179.416,249.722 180.082,249.222 180.5,248.5 Z"/></g>
<g><path style="opacity:1" fill="#d2a36b" d="M 180.5,248.5 C 180.082,249.222 179.416,249.722 178.5,250C 180.733,251.829 183.067,252.329 185.5,251.5C 186.492,251.328 187.158,251.662 187.5,252.5C 186.89,253.391 186.557,254.391 186.5,255.5C 180.866,252.613 174.866,251.78 168.5,253C 165.558,254.436 163.558,256.603 162.5,259.5C 162.372,255.415 164.039,252.415 167.5,250.5C 167.5,250.167 167.5,249.833 167.5,249.5C 168.791,249.737 169.791,249.404 170.5,248.5C 173.833,247.167 177.167,247.167 180.5,248.5 Z"/></g>
<g><path style="opacity:1" fill="#beb6a6" d="M 236.5,251.5 C 236.768,253.099 236.434,254.432 235.5,255.5C 235.67,254.178 235.337,253.011 234.5,252C 235.094,251.536 235.761,251.369 236.5,251.5 Z"/></g>
<g><path style="opacity:1" fill="#d9d7d6" d="M 186.5,255.5 C 188.266,259.674 187.266,263.008 183.5,265.5C 181.359,262.528 178.692,260.028 175.5,258C 177.225,258.409 178.892,258.242 180.5,257.5C 177.554,256.345 174.554,256.179 171.5,257C 174.283,260.459 177.616,263.126 181.5,265C 178.996,265.698 176.663,266.531 174.5,267.5C 172.833,267.5 171.167,267.5 169.5,267.5C 168.152,266.399 166.652,265.399 165,264.5C 162.741,266.851 161.241,266.185 160.5,262.5C 161.193,261.482 161.859,260.482 162.5,259.5C 163.558,256.603 165.558,254.436 168.5,253C 174.866,251.78 180.866,252.613 186.5,255.5 Z"/></g>
<g><path style="opacity:1" fill="#d4974e" d="M 167.5,250.5 C 164.039,252.415 162.372,255.415 162.5,259.5C 161.859,260.482 161.193,261.482 160.5,262.5C 161.241,266.185 162.741,266.851 165,264.5C 166.652,265.399 168.152,266.399 169.5,267.5C 168.357,267.908 167.357,268.575 166.5,269.5C 172.816,271.101 178.816,270.268 184.5,267C 188.795,263.907 190.462,259.74 189.5,254.5C 192.389,257.491 193.722,261.158 193.5,265.5C 192.833,265.833 192.167,266.167 191.5,266.5C 191.649,265.448 191.483,264.448 191,263.5C 188.913,267.302 185.746,269.802 181.5,271C 176.663,272.013 171.83,272.846 167,273.5C 165.112,271.473 162.946,269.806 160.5,268.5C 158.65,267.128 157.317,267.628 156.5,270C 157.044,270.717 157.711,271.217 158.5,271.5C 160.847,274.179 163.181,276.846 165.5,279.5C 165.158,280.338 164.492,280.672 163.5,280.5C 162.5,277.5 160.5,275.5 157.5,274.5C 156.5,272.833 155.167,271.5 153.5,270.5C 153.442,267.94 154.609,265.606 157,263.5C 157.79,256.885 161.29,252.552 167.5,250.5 Z"/></g>
<g><path style="opacity:1" fill="#9e9d9b" d="M 183.5,265.5 C 180.754,267.126 177.754,267.793 174.5,267.5C 176.663,266.531 178.996,265.698 181.5,265C 177.616,263.126 174.283,260.459 171.5,257C 174.554,256.179 177.554,256.345 180.5,257.5C 178.892,258.242 177.225,258.409 175.5,258C 178.692,260.028 181.359,262.528 183.5,265.5 Z"/></g>
<g><path style="opacity:1" fill="#f7ae4f" d="M 187.5,252.5 C 188.5,252.833 189.167,253.5 189.5,254.5C 190.462,259.74 188.795,263.907 184.5,267C 178.816,270.268 172.816,271.101 166.5,269.5C 167.357,268.575 168.357,267.908 169.5,267.5C 171.167,267.5 172.833,267.5 174.5,267.5C 177.754,267.793 180.754,267.126 183.5,265.5C 187.266,263.008 188.266,259.674 186.5,255.5C 186.557,254.391 186.89,253.391 187.5,252.5 Z"/></g>
<g><path style="opacity:1" fill="#ffebd2" d="M 160.5,268.5 C 160.715,270.179 160.048,271.179 158.5,271.5C 157.711,271.217 157.044,270.717 156.5,270C 157.317,267.628 158.65,267.128 160.5,268.5 Z"/></g>
<g><path style="opacity:1" fill="#2b2a2a" d="M 193.5,265.5 C 193.107,268.513 193.774,271.18 195.5,273.5C 196.808,288.683 190.141,298.849 175.5,304C 166.427,305.763 158.094,304.096 150.5,299C 148.47,297.104 146.803,294.937 145.5,292.5C 144.229,294.806 144.562,296.806 146.5,298.5C 144.856,298.714 143.356,298.38 142,297.5C 141.333,295.167 141.333,292.833 142,290.5C 144.416,287.577 147.25,285.243 150.5,283.5C 150.5,282.833 150.833,282.5 151.5,282.5C 154.282,285.224 157.615,286.891 161.5,287.5C 162.659,289.377 164.326,289.877 166.5,289C 165.919,288.107 165.585,287.107 165.5,286C 166.021,282.934 167.021,280.101 168.5,277.5C 178.396,278.385 186.063,274.718 191.5,266.5C 192.167,266.167 192.833,265.833 193.5,265.5 Z"/></g>
<g><path style="opacity:1" fill="#efa84e" d="M 191.5,266.5 C 186.063,274.718 178.396,278.385 168.5,277.5C 167.5,278.167 166.5,278.833 165.5,279.5C 163.181,276.846 160.847,274.179 158.5,271.5C 160.048,271.179 160.715,270.179 160.5,268.5C 162.946,269.806 165.112,271.473 167,273.5C 171.83,272.846 176.663,272.013 181.5,271C 185.746,269.802 188.913,267.302 191,263.5C 191.483,264.448 191.649,265.448 191.5,266.5 Z"/></g>
<g><path style="opacity:1" fill="#623110" d="M 153.5,270.5 C 155.167,271.5 156.5,272.833 157.5,274.5C 158.207,276.134 159.373,277.468 161,278.5C 161.494,280.134 161.66,281.801 161.5,283.5C 157.77,282.944 154.603,281.278 152,278.5C 151.536,279.094 151.369,279.761 151.5,280.5C 150.506,279.001 150.506,277.334 151.5,275.5C 152.441,273.95 153.107,272.284 153.5,270.5 Z"/></g>
<g><path style="opacity:1" fill="#4b2a16" d="M 157.5,274.5 C 160.5,275.5 162.5,277.5 163.5,280.5C 162.935,282.952 162.268,285.285 161.5,287.5C 157.615,286.891 154.282,285.224 151.5,282.5C 151.5,281.833 151.5,281.167 151.5,280.5C 151.369,279.761 151.536,279.094 152,278.5C 154.603,281.278 157.77,282.944 161.5,283.5C 161.66,281.801 161.494,280.134 161,278.5C 159.373,277.468 158.207,276.134 157.5,274.5 Z"/></g>
<g><path style="opacity:1" fill="#22252b" d="M 195.5,273.5 C 200.055,277.87 201.555,283.203 200,289.5C 197.124,296.533 192.624,302.2 186.5,306.5C 179.023,310.462 171.023,312.129 162.5,311.5C 155.657,309.072 150.324,304.738 146.5,298.5C 144.562,296.806 144.229,294.806 145.5,292.5C 146.803,294.937 148.47,297.104 150.5,299C 158.094,304.096 166.427,305.763 175.5,304C 190.141,298.849 196.808,288.683 195.5,273.5 Z"/></g>
<g><path style="opacity:1" fill="#99282b" d="M 168.5,277.5 C 167.021,280.101 166.021,282.934 165.5,286C 165.585,287.107 165.919,288.107 166.5,289C 164.326,289.877 162.659,289.377 161.5,287.5C 162.268,285.285 162.935,282.952 163.5,280.5C 164.492,280.672 165.158,280.338 165.5,279.5C 166.5,278.833 167.5,278.167 168.5,277.5 Z"/></g>
<g><path style="opacity:1" fill="#90a5e4" d="M 238.5,292.5 C 239.16,294.344 240.16,296.01 241.5,297.5C 239.364,302.026 238.031,306.692 237.5,311.5C 232.407,312.386 227.074,312.386 221.5,311.5C 220.593,308.579 220.26,305.579 220.5,302.5C 225.669,301.584 230.669,300.084 235.5,298C 236.609,296.124 237.609,294.291 238.5,292.5 Z"/></g>
<g><path style="opacity:1" fill="#6d81b6" d="M 220.5,302.5 C 220.26,305.579 220.593,308.579 221.5,311.5C 227.074,312.386 232.407,312.386 237.5,311.5C 236.833,311.5 236.5,311.833 236.5,312.5C 230.671,312.968 225.004,313.635 219.5,314.5C 219.768,316.099 219.434,317.432 218.5,318.5C 218.868,315.944 218.034,313.944 216,312.5C 212.981,314.178 209.815,315.011 206.5,315C 210.601,313.783 214.268,311.783 217.5,309C 219.206,303.874 217.539,302.374 212.5,304.5C 212.572,302.689 213.405,301.356 215,300.5C 216.567,301.856 218.4,302.523 220.5,302.5 Z"/></g>
<g><path style="opacity:1" fill="#91a8ea" d="M 218.5,318.5 C 206.484,322.678 194.151,323.678 181.5,321.5C 181.167,321.5 180.833,321.5 180.5,321.5C 180.489,319.983 179.823,318.816 178.5,318C 181.377,316.873 184.377,316.206 187.5,316C 187.167,315.667 186.833,315.333 186.5,315C 188.405,313.185 190.072,311.185 191.5,309C 197.681,308.828 203.681,308.328 209.5,307.5C 210.728,306.694 211.728,305.694 212.5,304.5C 217.539,302.374 219.206,303.874 217.5,309C 214.268,311.783 210.601,313.783 206.5,315C 209.815,315.011 212.981,314.178 216,312.5C 218.034,313.944 218.868,315.944 218.5,318.5 Z"/></g>
<g><path style="opacity:1" fill="#6778a8" d="M 186.5,306.5 C 194.111,307.434 201.778,307.767 209.5,307.5C 203.681,308.328 197.681,308.828 191.5,309C 190.072,311.185 188.405,313.185 186.5,315C 186.833,315.333 187.167,315.667 187.5,316C 184.377,316.206 181.377,316.873 178.5,318C 179.823,318.816 180.489,319.983 180.5,321.5C 179.849,322.091 179.182,322.757 178.5,323.5C 177.824,322.398 177.158,321.398 176.5,320.5C 176.461,319.417 176.127,318.417 175.5,317.5C 172.92,316.451 170.254,315.784 167.5,315.5C 165.642,313.87 163.642,313.537 161.5,314.5C 162.11,313.609 162.443,312.609 162.5,311.5C 171.023,312.129 179.023,310.462 186.5,306.5 Z"/></g>
<g><path style="opacity:1" fill="#795430" d="M 237.5,311.5 C 238.925,312.922 239.925,314.589 240.5,316.5C 237.513,316.002 234.513,315.502 231.5,315C 233.744,314.95 235.411,314.117 236.5,312.5C 236.5,311.833 236.833,311.5 237.5,311.5 Z"/></g>
<g><path style="opacity:1" fill="#39363b" d="M 165.5,316.5 C 173.464,317.364 173.464,318.531 165.5,320C 166.5,320.833 167.5,321.667 168.5,322.5C 166.78,323.934 164.78,324.767 162.5,325C 163.624,325.249 164.624,325.749 165.5,326.5C 165.333,326.833 165.167,327.167 165,327.5C 162.393,326.877 159.893,326.21 157.5,325.5C 159.696,324.188 162.03,323.021 164.5,322C 159.822,321.803 159.488,320.803 163.5,319C 161.699,318.683 161.366,318.016 162.5,317C 163.448,316.517 164.448,316.351 165.5,316.5 Z"/></g>
<g><path style="opacity:1" fill="#473c39" d="M 236.5,312.5 C 235.411,314.117 233.744,314.95 231.5,315C 234.513,315.502 237.513,316.002 240.5,316.5C 241.833,317.167 242.833,318.167 243.5,319.5C 238.675,320.649 233.675,321.149 228.5,321C 234.004,317.741 233.337,316.075 226.5,316C 226.833,315.667 227.167,315.333 227.5,315C 224.854,314.503 222.187,314.336 219.5,314.5C 225.004,313.635 230.671,312.968 236.5,312.5 Z"/></g>
<g><path style="opacity:1" fill="#5e412e" d="M 167.5,315.5 C 166.508,315.328 165.842,315.662 165.5,316.5C 164.448,316.351 163.448,316.517 162.5,317C 161.366,318.016 161.699,318.683 163.5,319C 159.488,320.803 159.822,321.803 164.5,322C 162.03,323.021 159.696,324.188 157.5,325.5C 155.896,326.287 155.229,327.62 155.5,329.5C 152.455,329.508 149.455,329.841 146.5,330.5C 149.476,327.698 152.642,325.031 156,322.5C 157.609,319.593 159.442,316.927 161.5,314.5C 163.642,313.537 165.642,313.87 167.5,315.5 Z"/></g>
<g><path style="opacity:1" fill="#472a19" d="M 218.5,319.5 C 218,325.501 220,330.501 224.5,334.5C 227.356,332.478 229.689,329.978 231.5,327C 232.5,326.333 233.5,326.333 234.5,327C 231.65,329.682 228.984,332.516 226.5,335.5C 228.678,337.745 231.012,339.745 233.5,341.5C 227.897,340.632 222.564,338.965 217.5,336.5C 214.534,334.979 211.534,333.812 208.5,333C 205.394,339.499 202.394,345.999 199.5,352.5C 199.167,352.5 198.833,352.5 198.5,352.5C 198.662,350.473 198.495,348.473 198,346.5C 195.909,343.26 194.076,339.926 192.5,336.5C 194.836,339.335 197.336,342.002 200,344.5C 200.945,344.095 201.612,343.428 202,342.5C 202.923,338.21 203.423,333.877 203.5,329.5C 204.117,329.611 204.617,329.944 205,330.5C 205.813,328.564 206.313,326.564 206.5,324.5C 209.2,322.233 212.2,321.9 215.5,323.5C 215.468,321.381 216.468,320.048 218.5,319.5 Z"/></g>
<g><path style="opacity:1" fill="#4b2b17" d="M 176.5,320.5 C 177.158,321.398 177.824,322.398 178.5,323.5C 179.182,322.757 179.849,322.091 180.5,321.5C 180.833,321.5 181.167,321.5 181.5,321.5C 182.263,322.268 183.263,322.768 184.5,323C 184.167,323.333 183.833,323.667 183.5,324C 185.473,324.495 187.473,324.662 189.5,324.5C 187.898,326.074 185.898,326.741 183.5,326.5C 180.916,327.048 179.916,328.715 180.5,331.5C 182.144,331.714 183.644,331.38 185,330.5C 185.374,331.416 185.874,332.25 186.5,333C 189.025,333.424 191.025,334.59 192.5,336.5C 189.255,336.03 186.421,334.697 184,332.5C 181.241,333.323 178.407,333.99 175.5,334.5C 172.891,337.144 169.891,339.311 166.5,341C 165.833,342.667 165.167,344.333 164.5,346C 165,346.5 165.5,347 166,347.5C 166.498,350.817 166.665,354.15 166.5,357.5C 164.704,356.207 163.037,354.707 161.5,353C 159.866,352.506 158.199,352.34 156.5,352.5C 157.069,345.537 159.736,339.537 164.5,334.5C 163.395,333.108 162.061,331.941 160.5,331C 162.678,330.835 164.511,331.668 166,333.5C 170.441,329.896 173.941,325.562 176.5,320.5 Z"/></g>
<g><path style="opacity:1" fill="#6474a0" d="M 218.5,318.5 C 218.5,318.833 218.5,319.167 218.5,319.5C 216.468,320.048 215.468,321.381 215.5,323.5C 212.2,321.9 209.2,322.233 206.5,324.5C 205.167,324.5 203.833,324.5 202.5,324.5C 200.167,324.5 197.833,324.5 195.5,324.5C 193.5,324.5 191.5,324.5 189.5,324.5C 187.473,324.662 185.473,324.495 183.5,324C 183.833,323.667 184.167,323.333 184.5,323C 183.263,322.768 182.263,322.268 181.5,321.5C 194.151,323.678 206.484,322.678 218.5,318.5 Z"/></g>
<g><path style="opacity:1" fill="#6c4112" d="M 195.5,324.5 C 197.833,324.5 200.167,324.5 202.5,324.5C 203.301,326.042 203.634,327.708 203.5,329.5C 203.423,333.877 202.923,338.21 202,342.5C 201.612,343.428 200.945,344.095 200,344.5C 197.336,342.002 194.836,339.335 192.5,336.5C 191.025,334.59 189.025,333.424 186.5,333C 185.874,332.25 185.374,331.416 185,330.5C 183.644,331.38 182.144,331.714 180.5,331.5C 179.916,328.715 180.916,327.048 183.5,326.5C 182.402,327.397 182.402,328.23 183.5,329C 186.796,329.457 189.963,330.291 193,331.5C 193.688,330.668 193.521,330.002 192.5,329.5C 190.885,328.846 189.218,328.346 187.5,328C 190.599,327.613 193.266,326.446 195.5,324.5 Z"/></g>
<g><path style="opacity:1" fill="#677674" d="M 202.5,324.5 C 203.833,324.5 205.167,324.5 206.5,324.5C 206.313,326.564 205.813,328.564 205,330.5C 204.617,329.944 204.117,329.611 203.5,329.5C 203.634,327.708 203.301,326.042 202.5,324.5 Z"/></g>
<g><path style="opacity:1" fill="#653711" d="M 165.5,316.5 C 165.842,315.662 166.508,315.328 167.5,315.5C 170.254,315.784 172.92,316.451 175.5,317.5C 176.127,318.417 176.461,319.417 176.5,320.5C 173.941,325.562 170.441,329.896 166,333.5C 164.511,331.668 162.678,330.835 160.5,331C 162.061,331.941 163.395,333.108 164.5,334.5C 159.736,339.537 157.069,345.537 156.5,352.5C 149.918,353.784 143.584,352.617 137.5,349C 136.565,346.619 136.232,344.119 136.5,341.5C 136.016,338.212 137.016,335.545 139.5,333.5C 141.547,331.925 143.881,330.925 146.5,330.5C 149.455,329.841 152.455,329.508 155.5,329.5C 155.229,327.62 155.896,326.287 157.5,325.5C 159.893,326.21 162.393,326.877 165,327.5C 165.167,327.167 165.333,326.833 165.5,326.5C 164.624,325.749 163.624,325.249 162.5,325C 164.78,324.767 166.78,323.934 168.5,322.5C 167.5,321.667 166.5,320.833 165.5,320C 173.464,318.531 173.464,317.364 165.5,316.5 Z"/></g>
<g><path style="opacity:1" fill="#3d383a" d="M 189.5,324.5 C 191.5,324.5 193.5,324.5 195.5,324.5C 193.266,326.446 190.599,327.613 187.5,328C 189.218,328.346 190.885,328.846 192.5,329.5C 193.521,330.002 193.688,330.668 193,331.5C 189.963,330.291 186.796,329.457 183.5,329C 182.402,328.23 182.402,327.397 183.5,326.5C 185.898,326.741 187.898,326.074 189.5,324.5 Z"/></g>
<g><path style="opacity:1" fill="#937b55" d="M 253.5,324.5 C 255.016,326.936 257.016,328.936 259.5,330.5C 258.833,330.833 258.167,331.167 257.5,331.5C 253.523,330.037 249.523,328.37 245.5,326.5C 248.035,325.747 250.535,326.08 253,327.5C 253.483,326.552 253.649,325.552 253.5,324.5 Z"/></g>
<g><path style="opacity:1" fill="#673a13" d="M 219.5,314.5 C 222.187,314.336 224.854,314.503 227.5,315C 227.167,315.333 226.833,315.667 226.5,316C 233.337,316.075 234.004,317.741 228.5,321C 233.675,321.149 238.675,320.649 243.5,319.5C 247.088,320.798 250.421,322.464 253.5,324.5C 253.649,325.552 253.483,326.552 253,327.5C 250.535,326.08 248.035,325.747 245.5,326.5C 249.523,328.37 253.523,330.037 257.5,331.5C 251.404,331.92 247.737,335.254 246.5,341.5C 242.267,342.794 237.934,342.794 233.5,341.5C 231.012,339.745 228.678,337.745 226.5,335.5C 228.984,332.516 231.65,329.682 234.5,327C 233.5,326.333 232.5,326.333 231.5,327C 229.689,329.978 227.356,332.478 224.5,334.5C 220,330.501 218,325.501 218.5,319.5C 218.5,319.167 218.5,318.833 218.5,318.5C 219.434,317.432 219.768,316.099 219.5,314.5 Z"/></g>
<g><path style="opacity:1" fill="#070a0b" d="M 217.5,336.5 C 218.176,339.339 220.009,341.005 223,341.5C 229.015,343.47 235.182,344.47 241.5,344.5C 242.167,346.833 242.833,349.167 243.5,351.5C 234.088,351.63 225.421,349.13 217.5,344C 215.623,343.424 213.789,343.591 212,344.5C 210.527,344.097 209.194,343.43 208,342.5C 207.059,345.154 206.226,347.821 205.5,350.5C 201.866,355.579 197.866,360.412 193.5,365C 186.076,369.675 178.409,370.508 170.5,367.5C 170.714,365.856 170.38,364.356 169.5,363C 178.782,365.972 187.449,364.638 195.5,359C 197.085,356.931 198.419,354.764 199.5,352.5C 202.394,345.999 205.394,339.499 208.5,333C 211.534,333.812 214.534,334.979 217.5,336.5 Z"/></g>
<g><path style="opacity:1" fill="#4e3417" d="M 259.5,330.5 C 259.5,330.833 259.5,331.167 259.5,331.5C 259.5,333.5 259.5,335.5 259.5,337.5C 255.828,340.828 251.495,342.162 246.5,341.5C 247.737,335.254 251.404,331.92 257.5,331.5C 258.167,331.167 258.833,330.833 259.5,330.5 Z"/></g>
<g><path style="opacity:1" fill="#62def0" d="M 259.5,331.5 C 260.161,332.718 260.828,334.051 261.5,335.5C 269.527,337.592 276.36,341.592 282,347.5C 282.649,353.034 280.482,357.2 275.5,360C 264.378,365.033 252.711,368.366 240.5,370C 203.927,375.062 167.594,373.729 131.5,366C 123.246,364.124 116.079,360.291 110,354.5C 108.902,350.495 109.735,346.995 112.5,344C 120.765,338.633 129.765,335.133 139.5,333.5C 137.016,335.545 136.016,338.212 136.5,341.5C 135.662,341.842 135.328,342.508 135.5,343.5C 128.65,342.297 125.817,344.963 127,351.5C 131.409,354.788 136.242,357.122 141.5,358.5C 143.5,358.5 145.5,358.5 147.5,358.5C 149.969,359.317 152.635,359.817 155.5,360C 157.114,362.127 159.114,363.627 161.5,364.5C 163.289,365.877 165.289,366.877 167.5,367.5C 168.5,367.5 169.5,367.5 170.5,367.5C 178.409,370.508 186.076,369.675 193.5,365C 197.866,360.412 201.866,355.579 205.5,350.5C 206.837,349.685 207.837,348.518 208.5,347C 215.834,346.995 222.834,348.661 229.5,352C 236.833,352.667 244.167,352.667 251.5,352C 252.056,351.617 252.389,351.117 252.5,350.5C 258.773,349.907 261.773,346.574 261.5,340.5C 261.715,338.821 261.048,337.821 259.5,337.5C 259.5,335.5 259.5,333.5 259.5,331.5 Z"/></g>
<g><path style="opacity:1" fill="#663611" d="M 192.5,336.5 C 194.076,339.926 195.909,343.26 198,346.5C 198.495,348.473 198.662,350.473 198.5,352.5C 196.131,356.195 192.797,358.695 188.5,360C 182.833,360.667 177.167,360.667 171.5,360C 169.807,359.153 168.14,358.32 166.5,357.5C 166.665,354.15 166.498,350.817 166,347.5C 165.5,347 165,346.5 164.5,346C 165.167,344.333 165.833,342.667 166.5,341C 169.891,339.311 172.891,337.144 175.5,334.5C 178.407,333.99 181.241,333.323 184,332.5C 186.421,334.697 189.255,336.03 192.5,336.5 Z"/></g>
<g><path style="opacity:1" fill="#3a3a3c" d="M 217.5,336.5 C 222.564,338.965 227.897,340.632 233.5,341.5C 237.934,342.794 242.267,342.794 246.5,341.5C 251.495,342.162 255.828,340.828 259.5,337.5C 261.048,337.821 261.715,338.821 261.5,340.5C 256.464,342.01 251.464,343.677 246.5,345.5C 244.865,344.954 243.199,344.62 241.5,344.5C 235.182,344.47 229.015,343.47 223,341.5C 220.009,341.005 218.176,339.339 217.5,336.5 Z"/></g>
<g><path style="opacity:1" fill="#42a1b6" d="M 135.5,343.5 C 131.728,350.629 133.728,355.296 141.5,357.5C 141.5,357.833 141.5,358.167 141.5,358.5C 136.242,357.122 131.409,354.788 127,351.5C 125.817,344.963 128.65,342.297 135.5,343.5 Z"/></g>
<g><path style="opacity:1" fill="#3e99ac" d="M 243.5,351.5 C 246.57,351.632 249.57,351.299 252.5,350.5C 252.389,351.117 252.056,351.617 251.5,352C 244.167,352.667 236.833,352.667 229.5,352C 222.834,348.661 215.834,346.995 208.5,347C 207.837,348.518 206.837,349.685 205.5,350.5C 206.226,347.821 207.059,345.154 208,342.5C 209.194,343.43 210.527,344.097 212,344.5C 213.789,343.591 215.623,343.424 217.5,344C 225.421,349.13 234.088,351.63 243.5,351.5 Z"/></g>
<g><path style="opacity:1" fill="#202328" d="M 261.5,340.5 C 261.773,346.574 258.773,349.907 252.5,350.5C 249.57,351.299 246.57,351.632 243.5,351.5C 242.833,349.167 242.167,346.833 241.5,344.5C 243.199,344.62 244.865,344.954 246.5,345.5C 251.464,343.677 256.464,342.01 261.5,340.5 Z"/></g>
<g><path style="opacity:1" fill="#030607" d="M 167.5,367.5 C 165.289,366.877 163.289,365.877 161.5,364.5C 159.919,362.858 159.253,360.858 159.5,358.5C 155.5,358.5 151.5,358.5 147.5,358.5C 145.5,358.5 143.5,358.5 141.5,358.5C 141.5,358.167 141.5,357.833 141.5,357.5C 142.431,355.978 143.598,354.645 145,353.5C 150.163,354.096 155.33,354.762 160.5,355.5C 161.891,357.89 163.891,359.557 166.5,360.5C 167.474,362.743 167.808,365.076 167.5,367.5 Z"/></g>
<g><path style="opacity:1" fill="#393739" d="M 136.5,341.5 C 136.232,344.119 136.565,346.619 137.5,349C 143.584,352.617 149.918,353.784 156.5,352.5C 158.199,352.34 159.866,352.506 161.5,353C 163.037,354.707 164.704,356.207 166.5,357.5C 168.14,358.32 169.807,359.153 171.5,360C 177.167,360.667 182.833,360.667 188.5,360C 192.797,358.695 196.131,356.195 198.5,352.5C 198.833,352.5 199.167,352.5 199.5,352.5C 198.419,354.764 197.085,356.931 195.5,359C 187.449,364.638 178.782,365.972 169.5,363C 170.38,364.356 170.714,365.856 170.5,367.5C 169.5,367.5 168.5,367.5 167.5,367.5C 167.808,365.076 167.474,362.743 166.5,360.5C 163.891,359.557 161.891,357.89 160.5,355.5C 155.33,354.762 150.163,354.096 145,353.5C 143.598,354.645 142.431,355.978 141.5,357.5C 133.728,355.296 131.728,350.629 135.5,343.5C 135.328,342.508 135.662,341.842 136.5,341.5 Z"/></g>
<g><path style="opacity:1" fill="#388a9b" d="M 147.5,358.5 C 151.5,358.5 155.5,358.5 159.5,358.5C 159.253,360.858 159.919,362.858 161.5,364.5C 159.114,363.627 157.114,362.127 155.5,360C 152.635,359.817 149.969,359.317 147.5,358.5 Z"/></g>
</svg>
