<?xml version="1.0" encoding="utf-8"?>
<svg width="24px" height="24px" viewBox="0 0 24 24" version="1.1" xmlns:xlink="http://www.w3.org/1999/xlink" xmlns="http://www.w3.org/2000/svg">
  <defs>
    <path d="M-12 -282L-12 -282L-12 -258L-36 -258L-36 -282L-12 -282Z" id="path_1" />
    <clipPath id="clip_1">
      <use xlink:href="#path_1" clip-rule="evenodd" fill-rule="evenodd" />
    </clipPath>
  </defs>
  <g id="Youtube">
    <path d="M-12 -282L-12 -282L-12 -258L-36 -258L-36 -282L-12 -282Z" id="Youtube" fill="none" stroke="none" />
    <path d="M12 4C12 4 5.74555 3.99997 4.18555 4.41797C3.32455 4.64797 2.64797 5.32555 2.41797 6.18555C1.99997 7.74555 2 12 2 12C2 12 1.99997 16.2545 2.41797 17.8145C2.64797 18.6755 3.32555 19.352 4.18555 19.582C5.74555 20 12 20 12 20C12 20 18.2545 20 19.8145 19.582C20.6745 19.352 21.352 18.6745 21.582 17.8145C22 16.2545 22 12 22 12C22 12 22 7.74555 21.582 6.18555C21.352 5.32555 20.6745 4.64797 19.8145 4.41797C18.2545 3.99997 12 4 12 4L12 4ZM12 6C14.882 6 18.4909 6.13361 19.2969 6.34961C19.4659 6.39461 19.6044 6.53312 19.6504 6.70313C19.8914 7.60112 20 10.342 20 12C20 13.658 19.8914 16.3979 19.6504 17.2969C19.6054 17.4659 19.4669 17.6044 19.2969 17.6504C18.4919 17.8664 14.882 18 12 18C9.119 18 5.51012 17.8664 4.70313 17.6504C4.53412 17.6054 4.39561 17.4669 4.34961 17.2969C4.10861 16.3989 4 13.658 4 12C4 10.342 4.10861 7.60117 4.34961 6.70117C4.39461 6.53317 4.53312 6.39461 4.70313 6.34961C5.50812 6.13361 9.118 6 12 6L12 6ZM10 8.53516L10 15.4648L16 12L10 8.53516L10 8.53516Z" id="Shape" fill="#FFFFFF" fill-rule="evenodd" stroke="none" clip-path="url(#clip_1)" />
    <path d="M12 4C12 4 5.74555 3.99997 4.18555 4.41797C3.32455 4.64797 2.64797 5.32555 2.41797 6.18555C1.99997 7.74555 2 12 2 12C2 12 1.99997 16.2545 2.41797 17.8145C2.64797 18.6755 3.32555 19.352 4.18555 19.582C5.74555 20 12 20 12 20C12 20 18.2545 20 19.8145 19.582C20.6745 19.352 21.352 18.6745 21.582 17.8145C22 16.2545 22 12 22 12C22 12 22 7.74555 21.582 6.18555C21.352 5.32555 20.6745 4.64797 19.8145 4.41797C18.2545 3.99997 12 4 12 4L12 4ZM12 6C14.882 6 18.4909 6.13361 19.2969 6.34961C19.4659 6.39461 19.6044 6.53312 19.6504 6.70313C19.8914 7.60112 20 10.342 20 12C20 13.658 19.8914 16.3979 19.6504 17.2969C19.6054 17.4659 19.4669 17.6044 19.2969 17.6504C18.4919 17.8664 14.882 18 12 18C9.119 18 5.51012 17.8664 4.70313 17.6504C4.53412 17.6054 4.39561 17.4669 4.34961 17.2969C4.10861 16.3989 4 13.658 4 12C4 10.342 4.10861 7.60117 4.34961 6.70117C4.39461 6.53317 4.53312 6.39461 4.70313 6.34961C5.50812 6.13361 9.118 6 12 6L12 6ZM10 8.53516L10 15.4648L16 12L10 8.53516L10 8.53516Z" id="Shape" fill="#FFFFFF" fill-rule="evenodd" stroke="none" clip-path="url(#clip_1)" />
  </g>
</svg>